<svg width="485" height="896" viewBox="0 0 485 896" fill="none" xmlns="http://www.w3.org/2000/svg">
<path fill-rule="evenodd" clip-rule="evenodd" d="M286.521 409.832C270.952 419.297 255.279 427.188 239.282 433.703C223.405 440.124 207.206 445.177 190.902 448.546C222.775 453.692 254.648 466.209 286.521 486.105L484.285 603.698L401.612 744.555L203.847 626.953C188.269 617.48 173.648 607.811 159.866 597.816C146.084 587.924 133.994 576.989 123.673 564.882C133.994 595.08 139.141 627.8 139.141 663.145V895.826H-30.2142V665.769C-30.2142 648.516 -29.0687 631.476 -26.9562 614.641C-24.853 597.816 -21.1677 582.135 -15.9097 567.515C-35.7969 589.924 -61.666 609.7 -93.5395 626.953L-289.945 742.033L-374 601.073L-176.236 486.105C-159.932 476.52 -143.73 468.638 -127.733 462.114C-111.857 455.693 -95.6531 451.17 -79.3395 448.546C-95.6531 446.024 -112.06 441.287 -128.374 434.345C-144.771 427.505 -160.769 419.297 -176.236 409.832L-374 292.119L-291.313 152.527L-93.5395 270.138C-61.666 287.383 -35.376 307.688 -14.6419 330.935C-24.9531 301.695 -30.2142 269.301 -30.2142 233.947V0H139.141V231.415C139.141 248.669 138.088 265.615 135.883 282.441C133.78 299.266 130.096 314.947 124.95 329.679C135.261 317.571 147.134 306.851 160.498 297.275C173.861 287.81 188.269 278.756 203.847 270.138L400.235 155.161L484.285 294.743L286.521 409.832Z" fill="#F2D43A"/>
</svg>
